<?xml version="1.0" encoding="utf-8" standalone="no"?>
<!DOCTYPE svg PUBLIC "-//W3C//DTD SVG 1.1//EN"
  "http://www.w3.org/Graphics/SVG/1.1/DTD/svg11.dtd">
<svg xmlns:xlink="http://www.w3.org/1999/xlink" width="510.23622pt" height="342.992126pt" viewBox="0 0 510.23622 342.992126" xmlns="http://www.w3.org/2000/svg" version="1.1">
 <metadata>
  <rdf:RDF xmlns:dc="http://purl.org/dc/elements/1.1/" xmlns:cc="http://creativecommons.org/ns#" xmlns:rdf="http://www.w3.org/1999/02/22-rdf-syntax-ns#">
   <cc:Work>
    <dc:type rdf:resource="http://purl.org/dc/dcmitype/StillImage"/>
    <dc:date>2022-11-05T16:41:23.449694</dc:date>
    <dc:format>image/svg+xml</dc:format>
    <dc:creator>
     <cc:Agent>
      <dc:title>Matplotlib v3.5.2, https://matplotlib.org/</dc:title>
     </cc:Agent>
    </dc:creator>
   </cc:Work>
  </rdf:RDF>
 </metadata>
 <defs>
  <style type="text/css">*{stroke-linejoin: round; stroke-linecap: butt}</style>
 </defs>
 <g id="figure_1">
  <g id="patch_1">
   <path d="M 0 342.992126 
L 510.23622 342.992126 
L 510.23622 0 
L 0 0 
z
" style="fill: #ffffff"/>
  </g>
  <g id="axes_1">
   <g id="patch_2">
    <path d="M 63.779528 305.262992 
L 459.212598 305.262992 
L 459.212598 41.159055 
L 63.779528 41.159055 
z
" style="fill: #ffffff"/>
   </g>
   <g id="PolyCollection_1">
    <defs>
     <path id="m6a4dd3264a" d="M 78.988492 -81.743191 
L 78.988492 -37.729134 
L 89.852038 -37.729134 
L 100.715584 -37.729134 
L 111.57913 -37.729134 
L 122.442675 -37.729134 
L 133.306221 -37.729134 
L 144.169767 -37.729134 
L 155.033313 -37.729134 
L 165.896859 -37.729134 
L 176.760405 -37.729134 
L 187.623951 -37.729134 
L 198.487497 -37.729134 
L 209.351043 -37.729134 
L 220.214589 -37.729134 
L 231.078134 -37.729134 
L 241.94168 -37.729134 
L 252.805226 -37.729134 
L 263.668772 -37.729134 
L 274.532318 -37.729134 
L 285.395864 -37.729134 
L 296.25941 -37.729134 
L 307.122956 -37.729134 
L 317.986502 -37.729134 
L 328.850048 -37.729134 
L 339.713593 -37.729134 
L 350.577139 -37.729134 
L 361.440685 -37.729134 
L 372.304231 -37.729134 
L 383.167777 -37.729134 
L 383.167777 -112.052297 
L 383.167777 -112.052297 
L 372.304231 -110.393836 
L 361.440685 -109.680022 
L 350.577139 -109.745842 
L 339.713593 -110.261671 
L 328.850048 -109.694009 
L 317.986502 -108.562709 
L 307.122956 -107.316348 
L 296.25941 -104.676371 
L 285.395864 -100.645429 
L 274.532318 -101.640149 
L 263.668772 -101.606166 
L 252.805226 -99.448139 
L 241.94168 -97.177544 
L 231.078134 -94.807698 
L 220.214589 -92.9914 
L 209.351043 -89.907768 
L 198.487497 -89.085715 
L 187.623951 -88.196678 
L 176.760405 -86.338514 
L 165.896859 -86.334249 
L 155.033313 -86.202502 
L 144.169767 -85.880778 
L 133.306221 -84.221723 
L 122.442675 -83.480093 
L 111.57913 -82.975336 
L 100.715584 -82.866501 
L 89.852038 -82.298522 
L 78.988492 -81.743191 
z
" style="stroke: #ffffff"/>
    </defs>
    <g clip-path="url(#p85c02e07ea)">
     <use xlink:href="#m6a4dd3264a" x="0" y="342.992126" style="fill: #66c2a5; stroke: #ffffff"/>
    </g>
   </g>
   <g id="PolyCollection_2">
    <defs>
     <path id="m3ee527d260" d="M 78.988492 -111.076552 
L 78.988492 -81.743191 
L 89.852038 -82.298522 
L 100.715584 -82.866501 
L 111.57913 -82.975336 
L 122.442675 -83.480093 
L 133.306221 -84.221723 
L 144.169767 -85.880778 
L 155.033313 -86.202502 
L 165.896859 -86.334249 
L 176.760405 -86.338514 
L 187.623951 -88.196678 
L 198.487497 -89.085715 
L 209.351043 -89.907768 
L 220.214589 -92.9914 
L 231.078134 -94.807698 
L 241.94168 -97.177544 
L 252.805226 -99.448139 
L 263.668772 -101.606166 
L 274.532318 -101.640149 
L 285.395864 -100.645429 
L 296.25941 -104.676371 
L 307.122956 -107.316348 
L 317.986502 -108.562709 
L 328.850048 -109.694009 
L 339.713593 -110.261671 
L 350.577139 -109.745842 
L 361.440685 -109.680022 
L 372.304231 -110.393836 
L 383.167777 -112.052297 
L 383.167777 -165.223381 
L 383.167777 -165.223381 
L 372.304231 -162.40521 
L 361.440685 -161.024109 
L 350.577139 -161.070084 
L 339.713593 -161.598579 
L 328.850048 -159.992551 
L 317.986502 -157.934022 
L 307.122956 -155.991577 
L 296.25941 -151.155225 
L 285.395864 -144.256779 
L 274.532318 -145.171034 
L 263.668772 -144.40519 
L 252.805226 -140.05342 
L 241.94168 -135.610618 
L 231.078134 -131.549847 
L 220.214589 -127.013535 
L 209.351043 -122.362693 
L 198.487497 -120.885204 
L 187.623951 -119.888059 
L 176.760405 -116.884648 
L 165.896859 -116.948563 
L 155.033313 -116.968549 
L 144.169767 -116.118084 
L 133.306221 -114.768376 
L 122.442675 -112.705546 
L 111.57913 -111.615046 
L 100.715584 -111.542642 
L 89.852038 -111.339864 
L 78.988492 -111.076552 
z
" style="stroke: #ffffff"/>
    </defs>
    <g clip-path="url(#p85c02e07ea)">
     <use xlink:href="#m3ee527d260" x="0" y="342.992126" style="fill: #fc8d62; stroke: #ffffff"/>
    </g>
   </g>
   <g id="PolyCollection_3">
    <defs>
     <path id="m3a8607d3f8" d="M 78.988492 -151.719035 
L 78.988492 -111.076552 
L 89.852038 -111.339864 
L 100.715584 -111.542642 
L 111.57913 -111.615046 
L 122.442675 -112.705546 
L 133.306221 -114.768376 
L 144.169767 -116.118084 
L 155.033313 -116.968549 
L 165.896859 -116.948563 
L 176.760405 -116.884648 
L 187.623951 -119.888059 
L 198.487497 -120.885204 
L 209.351043 -122.362693 
L 220.214589 -127.013535 
L 231.078134 -131.549847 
L 241.94168 -135.610618 
L 252.805226 -140.05342 
L 263.668772 -144.40519 
L 274.532318 -145.171034 
L 285.395864 -144.256779 
L 296.25941 -151.155225 
L 307.122956 -155.991577 
L 317.986502 -157.934022 
L 328.850048 -159.992551 
L 339.713593 -161.598579 
L 350.577139 -161.070084 
L 361.440685 -161.024109 
L 372.304231 -162.40521 
L 383.167777 -165.223381 
L 383.167777 -211.473872 
L 383.167777 -211.473872 
L 372.304231 -208.093421 
L 361.440685 -206.697425 
L 350.577139 -207.731658 
L 339.713593 -207.831076 
L 328.850048 -204.813312 
L 317.986502 -202.232469 
L 307.122956 -198.677291 
L 296.25941 -194.683721 
L 285.395864 -188.866629 
L 274.532318 -186.738004 
L 263.668772 -185.204264 
L 252.805226 -182.320581 
L 241.94168 -177.163271 
L 231.078134 -174.049207 
L 220.214589 -169.500171 
L 209.351043 -163.803094 
L 198.487497 -160.237623 
L 187.623951 -159.857202 
L 176.760405 -155.003648 
L 165.896859 -155.153893 
L 155.033313 -160.240532 
L 144.169767 -155.327477 
L 133.306221 -154.434937 
L 122.442675 -152.599299 
L 111.57913 -151.604301 
L 100.715584 -151.624431 
L 89.852038 -151.720157 
L 78.988492 -151.719035 
z
" style="stroke: #ffffff"/>
    </defs>
    <g clip-path="url(#p85c02e07ea)">
     <use xlink:href="#m3a8607d3f8" x="0" y="342.992126" style="fill: #8da0cb; stroke: #ffffff"/>
    </g>
   </g>
   <g id="PolyCollection_4">
    <defs>
     <path id="m915de587bb" d="M 78.988492 -169.463907 
L 78.988492 -151.719035 
L 89.852038 -151.720157 
L 100.715584 -151.624431 
L 111.57913 -151.604301 
L 122.442675 -152.599299 
L 133.306221 -154.434937 
L 144.169767 -155.327477 
L 155.033313 -160.240532 
L 165.896859 -155.153893 
L 176.760405 -155.003648 
L 187.623951 -159.857202 
L 198.487497 -160.237623 
L 209.351043 -163.803094 
L 220.214589 -169.500171 
L 231.078134 -174.049207 
L 241.94168 -177.163271 
L 252.805226 -182.320581 
L 263.668772 -185.204264 
L 274.532318 -186.738004 
L 285.395864 -188.866629 
L 296.25941 -194.683721 
L 307.122956 -198.677291 
L 317.986502 -202.232469 
L 328.850048 -204.813312 
L 339.713593 -207.831076 
L 350.577139 -207.731658 
L 361.440685 -206.697425 
L 372.304231 -208.093421 
L 383.167777 -211.473872 
L 383.167777 -242.634283 
L 383.167777 -242.634283 
L 372.304231 -238.764801 
L 361.440685 -236.939693 
L 350.577139 -237.354321 
L 339.713593 -236.661036 
L 328.850048 -233.088389 
L 317.986502 -229.989885 
L 307.122956 -225.941366 
L 296.25941 -221.475174 
L 285.395864 -214.572967 
L 274.532318 -212.944174 
L 263.668772 -211.379953 
L 252.805226 -207.709465 
L 241.94168 -202.004157 
L 231.078134 -198.387898 
L 220.214589 -192.798995 
L 209.351043 -186.596526 
L 198.487497 -182.510164 
L 187.623951 -182.022678 
L 176.760405 -176.517737 
L 165.896859 -176.067579 
L 155.033313 -180.689609 
L 144.169767 -175.477325 
L 133.306221 -173.793478 
L 122.442675 -171.452013 
L 111.57913 -170.09237 
L 100.715584 -169.952327 
L 89.852038 -169.63811 
L 78.988492 -169.463907 
z
" style="stroke: #ffffff"/>
    </defs>
    <g clip-path="url(#p85c02e07ea)">
     <use xlink:href="#m915de587bb" x="0" y="342.992126" style="fill: #e78ac3; stroke: #ffffff"/>
    </g>
   </g>
   <g id="PolyCollection_5">
    <defs>
     <path id="m47ff34fc29" d="M 78.988492 -180.732262 
L 78.988492 -169.463907 
L 89.852038 -169.63811 
L 100.715584 -169.952327 
L 111.57913 -170.09237 
L 122.442675 -171.452013 
L 133.306221 -173.793478 
L 144.169767 -175.477325 
L 155.033313 -180.689609 
L 165.896859 -176.067579 
L 176.760405 -176.517737 
L 187.623951 -182.022678 
L 198.487497 -182.510164 
L 209.351043 -186.596526 
L 220.214589 -192.798995 
L 231.078134 -198.387898 
L 241.94168 -202.004157 
L 252.805226 -207.709465 
L 263.668772 -211.379953 
L 274.532318 -212.944174 
L 285.395864 -214.572967 
L 296.25941 -221.475174 
L 307.122956 -225.941366 
L 317.986502 -229.989885 
L 328.850048 -233.088389 
L 339.713593 -236.661036 
L 350.577139 -237.354321 
L 361.440685 -236.939693 
L 372.304231 -238.764801 
L 383.167777 -242.634283 
L 383.167777 -255.0923 
L 383.167777 -255.0923 
L 372.304231 -250.786699 
L 361.440685 -248.723669 
L 350.577139 -248.970441 
L 339.713593 -248.265314 
L 328.850048 -244.811393 
L 317.986502 -241.364049 
L 307.122956 -237.407266 
L 296.25941 -233.103735 
L 285.395864 -226.050011 
L 274.532318 -224.570872 
L 263.668772 -222.761082 
L 252.805226 -219.13415 
L 241.94168 -213.574022 
L 231.078134 -209.926426 
L 220.214589 -204.166169 
L 209.351043 -197.614201 
L 198.487497 -193.565583 
L 187.623951 -193.006139 
L 176.760405 -187.458566 
L 165.896859 -186.728533 
L 155.033313 -191.995923 
L 144.169767 -186.822007 
L 133.306221 -184.954714 
L 122.442675 -182.266896 
L 111.57913 -181.254501 
L 100.715584 -180.868736 
L 89.852038 -180.985644 
L 78.988492 -180.732262 
z
" style="stroke: #ffffff"/>
    </defs>
    <g clip-path="url(#p85c02e07ea)">
     <use xlink:href="#m47ff34fc29" x="0" y="342.992126" style="fill: #a6d854; stroke: #ffffff"/>
    </g>
   </g>
   <g id="matplotlib.axis_1">
    <g id="xtick_1">
     <g id="line2d_1">
      <defs>
       <path id="ma5ce676d34" d="M 0 0 
L 0 5 
" style="stroke: #000000; stroke-width: 0.8"/>
      </defs>
      <g>
       <use xlink:href="#ma5ce676d34" x="78.988492" y="305.262992" style="stroke: #000000; stroke-width: 0.8"/>
      </g>
     </g>
     <g id="text_1">
      <!-- 1990 -->
      <g transform="translate(68.978804 320.219086)scale(0.09 -0.09)">
       <defs>
        <path id="Helvetica-31" d="M 613 3169 
L 613 3600 
Q 1222 3659 1462 3798 
Q 1703 3938 1822 4456 
L 2266 4456 
L 2266 0 
L 1666 0 
L 1666 3169 
L 613 3169 
z
" transform="scale(0.015625)"/>
        <path id="Helvetica-39" d="M 850 1081 
Q 875 616 1209 438 
Q 1381 344 1597 344 
Q 2000 344 2284 680 
Q 2569 1016 2688 2044 
Q 2500 1747 2223 1626 
Q 1947 1506 1628 1506 
Q 981 1506 604 1909 
Q 228 2313 228 2947 
Q 228 3556 600 4018 
Q 972 4481 1697 4481 
Q 2675 4481 3047 3600 
Q 3253 3116 3253 2388 
Q 3253 1566 3006 931 
Q 2597 -125 1619 -125 
Q 963 -125 622 219 
Q 281 563 281 1081 
L 850 1081 
z
M 1703 2000 
Q 2038 2000 2314 2220 
Q 2591 2441 2591 2991 
Q 2591 3484 2342 3726 
Q 2094 3969 1709 3969 
Q 1297 3969 1055 3692 
Q 813 3416 813 2953 
Q 813 2516 1025 2258 
Q 1238 2000 1703 2000 
z
" transform="scale(0.015625)"/>
        <path id="Helvetica-30" d="M 1731 4475 
Q 2600 4475 2988 3759 
Q 3288 3206 3288 2244 
Q 3288 1331 3016 734 
Q 2622 -122 1728 -122 
Q 922 -122 528 578 
Q 200 1163 200 2147 
Q 200 2909 397 3456 
Q 766 4475 1731 4475 
z
M 1725 391 
Q 2163 391 2422 778 
Q 2681 1166 2681 2222 
Q 2681 2984 2493 3476 
Q 2306 3969 1766 3969 
Q 1269 3969 1039 3501 
Q 809 3034 809 2125 
Q 809 1441 956 1025 
Q 1181 391 1725 391 
z
" transform="scale(0.015625)"/>
       </defs>
       <use xlink:href="#Helvetica-31"/>
       <use xlink:href="#Helvetica-39" x="55.615234"/>
       <use xlink:href="#Helvetica-39" x="111.230469"/>
       <use xlink:href="#Helvetica-30" x="166.845703"/>
      </g>
     </g>
    </g>
    <g id="xtick_2">
     <g id="line2d_2">
      <g>
       <use xlink:href="#ma5ce676d34" x="133.306221" y="305.262992" style="stroke: #000000; stroke-width: 0.8"/>
      </g>
     </g>
     <g id="text_2">
      <!-- 1995 -->
      <g transform="translate(123.296534 320.219086)scale(0.09 -0.09)">
       <defs>
        <path id="Helvetica-35" d="M 791 1141 
Q 847 659 1238 475 
Q 1438 381 1700 381 
Q 2200 381 2440 700 
Q 2681 1019 2681 1406 
Q 2681 1875 2395 2131 
Q 2109 2388 1709 2388 
Q 1419 2388 1211 2275 
Q 1003 2163 856 1963 
L 369 1991 
L 709 4400 
L 3034 4400 
L 3034 3856 
L 1131 3856 
L 941 2613 
Q 1097 2731 1238 2791 
Q 1488 2894 1816 2894 
Q 2431 2894 2859 2497 
Q 3288 2100 3288 1491 
Q 3288 856 2895 371 
Q 2503 -113 1644 -113 
Q 1097 -113 676 195 
Q 256 503 206 1141 
L 791 1141 
z
" transform="scale(0.015625)"/>
       </defs>
       <use xlink:href="#Helvetica-31"/>
       <use xlink:href="#Helvetica-39" x="55.615234"/>
       <use xlink:href="#Helvetica-39" x="111.230469"/>
       <use xlink:href="#Helvetica-35" x="166.845703"/>
      </g>
     </g>
    </g>
    <g id="xtick_3">
     <g id="line2d_3">
      <g>
       <use xlink:href="#ma5ce676d34" x="187.623951" y="305.262992" style="stroke: #000000; stroke-width: 0.8"/>
      </g>
     </g>
     <g id="text_3">
      <!-- 2000 -->
      <g transform="translate(177.614263 320.219086)scale(0.09 -0.09)">
       <defs>
        <path id="Helvetica-32" d="M 200 0 
Q 231 578 439 1006 
Q 647 1434 1250 1784 
L 1850 2131 
Q 2253 2366 2416 2531 
Q 2672 2791 2672 3125 
Q 2672 3516 2437 3745 
Q 2203 3975 1813 3975 
Q 1234 3975 1013 3538 
Q 894 3303 881 2888 
L 309 2888 
Q 319 3472 525 3841 
Q 891 4491 1816 4491 
Q 2584 4491 2939 4075 
Q 3294 3659 3294 3150 
Q 3294 2613 2916 2231 
Q 2697 2009 2131 1694 
L 1703 1456 
Q 1397 1288 1222 1134 
Q 909 863 828 531 
L 3272 531 
L 3272 0 
L 200 0 
z
" transform="scale(0.015625)"/>
       </defs>
       <use xlink:href="#Helvetica-32"/>
       <use xlink:href="#Helvetica-30" x="55.615234"/>
       <use xlink:href="#Helvetica-30" x="111.230469"/>
       <use xlink:href="#Helvetica-30" x="166.845703"/>
      </g>
     </g>
    </g>
    <g id="xtick_4">
     <g id="line2d_4">
      <g>
       <use xlink:href="#ma5ce676d34" x="241.94168" y="305.262992" style="stroke: #000000; stroke-width: 0.8"/>
      </g>
     </g>
     <g id="text_4">
      <!-- 2005 -->
      <g transform="translate(231.931993 320.219086)scale(0.09 -0.09)">
       <use xlink:href="#Helvetica-32"/>
       <use xlink:href="#Helvetica-30" x="55.615234"/>
       <use xlink:href="#Helvetica-30" x="111.230469"/>
       <use xlink:href="#Helvetica-35" x="166.845703"/>
      </g>
     </g>
    </g>
    <g id="xtick_5">
     <g id="line2d_5">
      <g>
       <use xlink:href="#ma5ce676d34" x="296.25941" y="305.262992" style="stroke: #000000; stroke-width: 0.8"/>
      </g>
     </g>
     <g id="text_5">
      <!-- 2010 -->
      <g transform="translate(286.249722 320.219086)scale(0.09 -0.09)">
       <use xlink:href="#Helvetica-32"/>
       <use xlink:href="#Helvetica-30" x="55.615234"/>
       <use xlink:href="#Helvetica-31" x="111.230469"/>
       <use xlink:href="#Helvetica-30" x="166.845703"/>
      </g>
     </g>
    </g>
    <g id="xtick_6">
     <g id="line2d_6">
      <g>
       <use xlink:href="#ma5ce676d34" x="350.577139" y="305.262992" style="stroke: #000000; stroke-width: 0.8"/>
      </g>
     </g>
     <g id="text_6">
      <!-- 2015 -->
      <g transform="translate(340.567452 320.219086)scale(0.09 -0.09)">
       <use xlink:href="#Helvetica-32"/>
       <use xlink:href="#Helvetica-30" x="55.615234"/>
       <use xlink:href="#Helvetica-31" x="111.230469"/>
       <use xlink:href="#Helvetica-35" x="166.845703"/>
      </g>
     </g>
    </g>
    <g id="xtick_7">
     <g id="line2d_7">
      <g>
       <use xlink:href="#ma5ce676d34" x="404.894869" y="305.262992" style="stroke: #000000; stroke-width: 0.8"/>
      </g>
     </g>
     <g id="text_7">
      <!-- 2020 -->
      <g transform="translate(394.885181 320.219086)scale(0.09 -0.09)">
       <use xlink:href="#Helvetica-32"/>
       <use xlink:href="#Helvetica-30" x="55.615234"/>
       <use xlink:href="#Helvetica-32" x="111.230469"/>
       <use xlink:href="#Helvetica-30" x="166.845703"/>
      </g>
     </g>
    </g>
    <g id="xtick_8">
     <g id="line2d_8">
      <g>
       <use xlink:href="#ma5ce676d34" x="459.212598" y="305.262992" style="stroke: #000000; stroke-width: 0.8"/>
      </g>
     </g>
     <g id="text_8">
      <!-- 2025 -->
      <g transform="translate(449.202911 320.219086)scale(0.09 -0.09)">
       <use xlink:href="#Helvetica-32"/>
       <use xlink:href="#Helvetica-30" x="55.615234"/>
       <use xlink:href="#Helvetica-32" x="111.230469"/>
       <use xlink:href="#Helvetica-35" x="166.845703"/>
      </g>
     </g>
    </g>
    <g id="text_9">
     <!-- Year -->
     <g transform="translate(251.991219 332.551117)scale(0.09 -0.09)">
      <defs>
       <path id="Helvetica-59" d="M 131 4591 
L 856 4591 
L 2175 2384 
L 3494 4591 
L 4222 4591 
L 2488 1850 
L 2488 0 
L 1866 0 
L 1866 1850 
L 131 4591 
z
M 2184 4591 
L 2184 4591 
z
" transform="scale(0.015625)"/>
       <path id="Helvetica-65" d="M 1806 3422 
Q 2163 3422 2497 3255 
Q 2831 3088 3006 2822 
Q 3175 2569 3231 2231 
Q 3281 2000 3281 1494 
L 828 1494 
Q 844 984 1069 676 
Q 1294 369 1766 369 
Q 2206 369 2469 659 
Q 2619 828 2681 1050 
L 3234 1050 
Q 3213 866 3089 639 
Q 2966 413 2813 269 
Q 2556 19 2178 -69 
Q 1975 -119 1719 -119 
Q 1094 -119 659 336 
Q 225 791 225 1609 
Q 225 2416 662 2919 
Q 1100 3422 1806 3422 
z
M 2703 1941 
Q 2669 2306 2544 2525 
Q 2313 2931 1772 2931 
Q 1384 2931 1121 2651 
Q 859 2372 844 1941 
L 2703 1941 
z
M 1753 3428 
L 1753 3428 
z
" transform="scale(0.015625)"/>
       <path id="Helvetica-61" d="M 844 891 
Q 844 647 1022 506 
Q 1200 366 1444 366 
Q 1741 366 2019 503 
Q 2488 731 2488 1250 
L 2488 1703 
Q 2384 1638 2221 1594 
Q 2059 1550 1903 1531 
L 1563 1488 
Q 1256 1447 1103 1359 
Q 844 1213 844 891 
z
M 2206 2028 
Q 2400 2053 2466 2191 
Q 2503 2266 2503 2406 
Q 2503 2694 2298 2823 
Q 2094 2953 1713 2953 
Q 1272 2953 1088 2716 
Q 984 2584 953 2325 
L 428 2325 
Q 444 2944 830 3186 
Q 1216 3428 1725 3428 
Q 2316 3428 2684 3203 
Q 3050 2978 3050 2503 
L 3050 575 
Q 3050 488 3086 434 
Q 3122 381 3238 381 
Q 3275 381 3322 386 
Q 3369 391 3422 400 
L 3422 -16 
Q 3291 -53 3222 -62 
Q 3153 -72 3034 -72 
Q 2744 -72 2613 134 
Q 2544 244 2516 444 
Q 2344 219 2022 53 
Q 1700 -113 1313 -113 
Q 847 -113 551 170 
Q 256 453 256 878 
Q 256 1344 547 1600 
Q 838 1856 1309 1916 
L 2206 2028 
z
M 1741 3428 
L 1741 3428 
z
" transform="scale(0.015625)"/>
       <path id="Helvetica-72" d="M 428 3347 
L 963 3347 
L 963 2769 
Q 1028 2938 1284 3180 
Q 1541 3422 1875 3422 
Q 1891 3422 1928 3419 
Q 1966 3416 2056 3406 
L 2056 2813 
Q 2006 2822 1964 2825 
Q 1922 2828 1872 2828 
Q 1447 2828 1219 2554 
Q 991 2281 991 1925 
L 991 0 
L 428 0 
L 428 3347 
z
" transform="scale(0.015625)"/>
      </defs>
      <use xlink:href="#Helvetica-59"/>
      <use xlink:href="#Helvetica-65" x="66.699219"/>
      <use xlink:href="#Helvetica-61" x="122.314453"/>
      <use xlink:href="#Helvetica-72" x="177.929688"/>
     </g>
    </g>
   </g>
   <g id="matplotlib.axis_2">
    <g id="ytick_1">
     <g id="line2d_9">
      <defs>
       <path id="m59510c820b" d="M 0 0 
L -5 0 
" style="stroke: #000000; stroke-width: 0.8"/>
      </defs>
      <g>
       <use xlink:href="#m59510c820b" x="63.779528" y="305.262992" style="stroke: #000000; stroke-width: 0.8"/>
      </g>
     </g>
     <g id="text_10">
      <!-- 0 -->
      <g transform="translate(50.274684 308.491039)scale(0.09 -0.09)">
       <use xlink:href="#Helvetica-30"/>
      </g>
     </g>
    </g>
    <g id="ytick_2">
     <g id="line2d_10">
      <g>
       <use xlink:href="#m59510c820b" x="63.779528" y="267.533858" style="stroke: #000000; stroke-width: 0.8"/>
      </g>
     </g>
     <g id="text_11">
      <!-- 10 -->
      <g transform="translate(45.26984 270.761905)scale(0.09 -0.09)">
       <use xlink:href="#Helvetica-31"/>
       <use xlink:href="#Helvetica-30" x="55.615234"/>
      </g>
     </g>
    </g>
    <g id="ytick_3">
     <g id="line2d_11">
      <g>
       <use xlink:href="#m59510c820b" x="63.779528" y="229.804724" style="stroke: #000000; stroke-width: 0.8"/>
      </g>
     </g>
     <g id="text_12">
      <!-- 20 -->
      <g transform="translate(45.26984 233.032771)scale(0.09 -0.09)">
       <use xlink:href="#Helvetica-32"/>
       <use xlink:href="#Helvetica-30" x="55.615234"/>
      </g>
     </g>
    </g>
    <g id="ytick_4">
     <g id="line2d_12">
      <g>
       <use xlink:href="#m59510c820b" x="63.779528" y="192.075591" style="stroke: #000000; stroke-width: 0.8"/>
      </g>
     </g>
     <g id="text_13">
      <!-- 30 -->
      <g transform="translate(45.26984 195.303637)scale(0.09 -0.09)">
       <defs>
        <path id="Helvetica-33" d="M 1663 -122 
Q 869 -122 511 314 
Q 153 750 153 1375 
L 741 1375 
Q 778 941 903 744 
Q 1122 391 1694 391 
Q 2138 391 2406 628 
Q 2675 866 2675 1241 
Q 2675 1703 2392 1887 
Q 2109 2072 1606 2072 
Q 1550 2072 1492 2070 
Q 1434 2069 1375 2066 
L 1375 2563 
Q 1463 2553 1522 2550 
Q 1581 2547 1650 2547 
Q 1966 2547 2169 2647 
Q 2525 2822 2525 3272 
Q 2525 3606 2287 3787 
Q 2050 3969 1734 3969 
Q 1172 3969 956 3594 
Q 838 3388 822 3006 
L 266 3006 
Q 266 3506 466 3856 
Q 809 4481 1675 4481 
Q 2359 4481 2734 4176 
Q 3109 3872 3109 3294 
Q 3109 2881 2888 2625 
Q 2750 2466 2531 2375 
Q 2884 2278 3082 2001 
Q 3281 1725 3281 1325 
Q 3281 684 2859 281 
Q 2438 -122 1663 -122 
z
" transform="scale(0.015625)"/>
       </defs>
       <use xlink:href="#Helvetica-33"/>
       <use xlink:href="#Helvetica-30" x="55.615234"/>
      </g>
     </g>
    </g>
    <g id="ytick_5">
     <g id="line2d_13">
      <g>
       <use xlink:href="#m59510c820b" x="63.779528" y="154.346457" style="stroke: #000000; stroke-width: 0.8"/>
      </g>
     </g>
     <g id="text_14">
      <!-- 40 -->
      <g transform="translate(45.26984 157.574504)scale(0.09 -0.09)">
       <defs>
        <path id="Helvetica-34" d="M 2116 1584 
L 2116 3613 
L 681 1584 
L 2116 1584 
z
M 2125 0 
L 2125 1094 
L 163 1094 
L 163 1644 
L 2213 4488 
L 2688 4488 
L 2688 1584 
L 3347 1584 
L 3347 1094 
L 2688 1094 
L 2688 0 
L 2125 0 
z
" transform="scale(0.015625)"/>
       </defs>
       <use xlink:href="#Helvetica-34"/>
       <use xlink:href="#Helvetica-30" x="55.615234"/>
      </g>
     </g>
    </g>
    <g id="ytick_6">
     <g id="line2d_14">
      <g>
       <use xlink:href="#m59510c820b" x="63.779528" y="116.617323" style="stroke: #000000; stroke-width: 0.8"/>
      </g>
     </g>
     <g id="text_15">
      <!-- 50 -->
      <g transform="translate(45.26984 119.84537)scale(0.09 -0.09)">
       <use xlink:href="#Helvetica-35"/>
       <use xlink:href="#Helvetica-30" x="55.615234"/>
      </g>
     </g>
    </g>
    <g id="ytick_7">
     <g id="line2d_15">
      <g>
       <use xlink:href="#m59510c820b" x="63.779528" y="78.888189" style="stroke: #000000; stroke-width: 0.8"/>
      </g>
     </g>
     <g id="text_16">
      <!-- 60 -->
      <g transform="translate(45.26984 82.116236)scale(0.09 -0.09)">
       <defs>
        <path id="Helvetica-36" d="M 1872 4494 
Q 2622 4494 2917 4105 
Q 3213 3716 3213 3303 
L 2656 3303 
Q 2606 3569 2497 3719 
Q 2294 4000 1881 4000 
Q 1409 4000 1131 3564 
Q 853 3128 822 2316 
Q 1016 2600 1309 2741 
Q 1578 2866 1909 2866 
Q 2472 2866 2890 2506 
Q 3309 2147 3309 1434 
Q 3309 825 2912 354 
Q 2516 -116 1781 -116 
Q 1153 -116 697 361 
Q 241 838 241 1966 
Q 241 2800 444 3381 
Q 834 4494 1872 4494 
z
M 1831 384 
Q 2275 384 2495 682 
Q 2716 981 2716 1388 
Q 2716 1731 2519 2042 
Q 2322 2353 1803 2353 
Q 1441 2353 1167 2112 
Q 894 1872 894 1388 
Q 894 963 1142 673 
Q 1391 384 1831 384 
z
" transform="scale(0.015625)"/>
       </defs>
       <use xlink:href="#Helvetica-36"/>
       <use xlink:href="#Helvetica-30" x="55.615234"/>
      </g>
     </g>
    </g>
    <g id="ytick_8">
     <g id="line2d_16">
      <g>
       <use xlink:href="#m59510c820b" x="63.779528" y="41.159055" style="stroke: #000000; stroke-width: 0.8"/>
      </g>
     </g>
     <g id="text_17">
      <!-- 70 -->
      <g transform="translate(45.26984 44.387102)scale(0.09 -0.09)">
       <defs>
        <path id="Helvetica-37" d="M 3347 4400 
L 3347 3909 
Q 3131 3700 2773 3181 
Q 2416 2663 2141 2063 
Q 1869 1478 1728 997 
Q 1638 688 1494 0 
L 872 0 
Q 1084 1281 1809 2550 
Q 2238 3294 2709 3834 
L 234 3834 
L 234 4400 
L 3347 4400 
z
" transform="scale(0.015625)"/>
       </defs>
       <use xlink:href="#Helvetica-37"/>
       <use xlink:href="#Helvetica-30" x="55.615234"/>
      </g>
     </g>
    </g>
    <g id="text_18">
     <!-- GHG emission (Gt CO2 eq/yr) -->
     <g transform="translate(39.340465 233.21993)rotate(-90)scale(0.09 -0.09)">
      <defs>
       <path id="Helvetica-47" d="M 2472 4709 
Q 3119 4709 3591 4459 
Q 4275 4100 4428 3200 
L 3813 3200 
Q 3700 3703 3347 3933 
Q 2994 4163 2456 4163 
Q 1819 4163 1383 3684 
Q 947 3206 947 2259 
Q 947 1441 1306 927 
Q 1666 413 2478 413 
Q 3100 413 3508 773 
Q 3916 1134 3925 1941 
L 2488 1941 
L 2488 2456 
L 4503 2456 
L 4503 0 
L 4103 0 
L 3953 591 
Q 3638 244 3394 109 
Q 2984 -122 2353 -122 
Q 1538 -122 950 406 
Q 309 1069 309 2225 
Q 309 3378 934 4059 
Q 1528 4709 2472 4709 
z
M 2369 4716 
L 2369 4716 
z
" transform="scale(0.015625)"/>
       <path id="Helvetica-48" d="M 503 4591 
L 1131 4591 
L 1131 2694 
L 3519 2694 
L 3519 4591 
L 4147 4591 
L 4147 0 
L 3519 0 
L 3519 2147 
L 1131 2147 
L 1131 0 
L 503 0 
L 503 4591 
z
" transform="scale(0.015625)"/>
       <path id="Helvetica-20" transform="scale(0.015625)"/>
       <path id="Helvetica-6d" d="M 413 3347 
L 969 3347 
L 969 2872 
Q 1169 3119 1331 3231 
Q 1609 3422 1963 3422 
Q 2363 3422 2606 3225 
Q 2744 3113 2856 2894 
Q 3044 3163 3297 3292 
Q 3550 3422 3866 3422 
Q 4541 3422 4784 2934 
Q 4916 2672 4916 2228 
L 4916 0 
L 4331 0 
L 4331 2325 
Q 4331 2659 4164 2784 
Q 3997 2909 3756 2909 
Q 3425 2909 3186 2687 
Q 2947 2466 2947 1947 
L 2947 0 
L 2375 0 
L 2375 2184 
Q 2375 2525 2294 2681 
Q 2166 2916 1816 2916 
Q 1497 2916 1236 2669 
Q 975 2422 975 1775 
L 975 0 
L 413 0 
L 413 3347 
z
" transform="scale(0.015625)"/>
       <path id="Helvetica-69" d="M 413 3331 
L 984 3331 
L 984 0 
L 413 0 
L 413 3331 
z
M 413 4591 
L 984 4591 
L 984 3953 
L 413 3953 
L 413 4591 
z
" transform="scale(0.015625)"/>
       <path id="Helvetica-73" d="M 747 1050 
Q 772 769 888 619 
Q 1100 347 1625 347 
Q 1938 347 2175 483 
Q 2413 619 2413 903 
Q 2413 1119 2222 1231 
Q 2100 1300 1741 1391 
L 1294 1503 
Q 866 1609 663 1741 
Q 300 1969 300 2372 
Q 300 2847 642 3140 
Q 984 3434 1563 3434 
Q 2319 3434 2653 2991 
Q 2863 2709 2856 2384 
L 2325 2384 
Q 2309 2575 2191 2731 
Q 1997 2953 1519 2953 
Q 1200 2953 1036 2831 
Q 872 2709 872 2509 
Q 872 2291 1088 2159 
Q 1213 2081 1456 2022 
L 1828 1931 
Q 2434 1784 2641 1647 
Q 2969 1431 2969 969 
Q 2969 522 2630 197 
Q 2291 -128 1597 -128 
Q 850 -128 539 211 
Q 228 550 206 1050 
L 747 1050 
z
M 1578 3428 
L 1578 3428 
z
" transform="scale(0.015625)"/>
       <path id="Helvetica-6f" d="M 1741 363 
Q 2300 363 2508 786 
Q 2716 1209 2716 1728 
Q 2716 2197 2566 2491 
Q 2328 2953 1747 2953 
Q 1231 2953 997 2559 
Q 763 2166 763 1609 
Q 763 1075 997 719 
Q 1231 363 1741 363 
z
M 1763 3444 
Q 2409 3444 2856 3012 
Q 3303 2581 3303 1744 
Q 3303 934 2909 406 
Q 2516 -122 1688 -122 
Q 997 -122 590 345 
Q 184 813 184 1600 
Q 184 2444 612 2944 
Q 1041 3444 1763 3444 
z
M 1744 3428 
L 1744 3428 
z
" transform="scale(0.015625)"/>
       <path id="Helvetica-6e" d="M 413 3347 
L 947 3347 
L 947 2872 
Q 1184 3166 1450 3294 
Q 1716 3422 2041 3422 
Q 2753 3422 3003 2925 
Q 3141 2653 3141 2147 
L 3141 0 
L 2569 0 
L 2569 2109 
Q 2569 2416 2478 2603 
Q 2328 2916 1934 2916 
Q 1734 2916 1606 2875 
Q 1375 2806 1200 2600 
Q 1059 2434 1017 2257 
Q 975 2081 975 1753 
L 975 0 
L 413 0 
L 413 3347 
z
M 1734 3428 
L 1734 3428 
z
" transform="scale(0.015625)"/>
       <path id="Helvetica-28" d="M 1894 4666 
Q 1403 3713 1256 3263 
Q 1034 2578 1034 1681 
Q 1034 775 1288 25 
Q 1444 -438 1903 -1306 
L 1525 -1306 
Q 1069 -594 959 -397 
Q 850 -200 722 138 
Q 547 600 478 1125 
Q 444 1397 444 1644 
Q 444 2569 734 3291 
Q 919 3750 1503 4666 
L 1894 4666 
z
" transform="scale(0.015625)"/>
       <path id="Helvetica-74" d="M 525 4281 
L 1094 4281 
L 1094 3347 
L 1628 3347 
L 1628 2888 
L 1094 2888 
L 1094 703 
Q 1094 528 1213 469 
Q 1278 434 1431 434 
Q 1472 434 1519 436 
Q 1566 438 1628 444 
L 1628 0 
Q 1531 -28 1426 -40 
Q 1322 -53 1200 -53 
Q 806 -53 665 148 
Q 525 350 525 672 
L 525 2888 
L 72 2888 
L 72 3347 
L 525 3347 
L 525 4281 
z
" transform="scale(0.015625)"/>
       <path id="Helvetica-43" d="M 2422 4716 
Q 3294 4716 3775 4256 
Q 4256 3797 4309 3213 
L 3703 3213 
Q 3600 3656 3292 3915 
Q 2984 4175 2428 4175 
Q 1750 4175 1333 3698 
Q 916 3222 916 2238 
Q 916 1431 1292 929 
Q 1669 428 2416 428 
Q 3103 428 3463 956 
Q 3653 1234 3747 1688 
L 4353 1688 
Q 4272 963 3816 472 
Q 3269 -119 2341 -119 
Q 1541 -119 997 366 
Q 281 1006 281 2344 
Q 281 3359 819 4009 
Q 1400 4716 2422 4716 
z
M 2297 4716 
L 2297 4716 
z
" transform="scale(0.015625)"/>
       <path id="Helvetica-4f" d="M 2469 4716 
Q 3684 4716 4269 3934 
Q 4725 3325 4725 2375 
Q 4725 1347 4203 666 
Q 3591 -134 2456 -134 
Q 1397 -134 791 566 
Q 250 1241 250 2272 
Q 250 3203 713 3866 
Q 1306 4716 2469 4716 
z
M 2531 422 
Q 3353 422 3720 1011 
Q 4088 1600 4088 2366 
Q 4088 3175 3664 3669 
Q 3241 4163 2506 4163 
Q 1794 4163 1344 3673 
Q 894 3184 894 2231 
Q 894 1469 1280 945 
Q 1666 422 2531 422 
z
M 2488 4716 
L 2488 4716 
z
" transform="scale(0.015625)"/>
       <path id="Helvetica-71" d="M 775 1628 
Q 775 1194 897 900 
Q 1113 378 1669 378 
Q 2256 378 2478 928 
Q 2600 1231 2600 1703 
Q 2600 2138 2466 2428 
Q 2238 2925 1663 2925 
Q 1297 2925 1036 2608 
Q 775 2291 775 1628 
z
M 1606 3422 
Q 2022 3422 2306 3213 
Q 2463 3100 2606 2881 
L 2606 3347 
L 3141 3347 
L 3141 -1334 
L 2575 -1334 
L 2575 384 
Q 2434 159 2186 26 
Q 1938 -106 1566 -106 
Q 1031 -106 609 312 
Q 188 731 188 1588 
Q 188 2391 583 2906 
Q 978 3422 1606 3422 
z
" transform="scale(0.015625)"/>
       <path id="Helvetica-2f" d="M 1456 4591 
L 1931 4591 
L 475 0 
L 0 0 
L 1456 4591 
z
" transform="scale(0.015625)"/>
       <path id="Helvetica-79" d="M 2503 3347 
L 3125 3347 
Q 3006 3025 2597 1878 
Q 2291 1016 2084 472 
Q 1597 -809 1397 -1090 
Q 1197 -1372 709 -1372 
Q 591 -1372 527 -1362 
Q 463 -1353 369 -1328 
L 369 -816 
Q 516 -856 581 -865 
Q 647 -875 697 -875 
Q 853 -875 926 -823 
Q 1000 -772 1050 -697 
Q 1066 -672 1162 -440 
Q 1259 -209 1303 -97 
L 66 3347 
L 703 3347 
L 1600 622 
L 2503 3347 
z
M 1597 3428 
L 1597 3428 
z
" transform="scale(0.015625)"/>
       <path id="Helvetica-29" d="M 222 -1306 
Q 719 -338 863 106 
Q 1081 778 1081 1681 
Q 1081 2584 828 3334 
Q 672 3797 213 4666 
L 591 4666 
Q 1072 3897 1173 3717 
Q 1275 3538 1394 3222 
Q 1544 2831 1608 2450 
Q 1672 2069 1672 1716 
Q 1672 791 1378 66 
Q 1194 -400 613 -1306 
L 222 -1306 
z
" transform="scale(0.015625)"/>
      </defs>
      <use xlink:href="#Helvetica-47"/>
      <use xlink:href="#Helvetica-48" x="77.783203"/>
      <use xlink:href="#Helvetica-47" x="150"/>
      <use xlink:href="#Helvetica-20" x="227.783203"/>
      <use xlink:href="#Helvetica-65" x="255.566406"/>
      <use xlink:href="#Helvetica-6d" x="311.181641"/>
      <use xlink:href="#Helvetica-69" x="394.482422"/>
      <use xlink:href="#Helvetica-73" x="416.699219"/>
      <use xlink:href="#Helvetica-73" x="466.699219"/>
      <use xlink:href="#Helvetica-69" x="516.699219"/>
      <use xlink:href="#Helvetica-6f" x="538.916016"/>
      <use xlink:href="#Helvetica-6e" x="594.53125"/>
      <use xlink:href="#Helvetica-20" x="650.146484"/>
      <use xlink:href="#Helvetica-28" x="677.929688"/>
      <use xlink:href="#Helvetica-47" x="711.230469"/>
      <use xlink:href="#Helvetica-74" x="789.013672"/>
      <use xlink:href="#Helvetica-20" x="816.796875"/>
      <use xlink:href="#Helvetica-43" x="844.580078"/>
      <use xlink:href="#Helvetica-4f" x="916.796875"/>
      <use xlink:href="#Helvetica-32" x="994.580078"/>
      <use xlink:href="#Helvetica-20" x="1050.195312"/>
      <use xlink:href="#Helvetica-65" x="1077.978516"/>
      <use xlink:href="#Helvetica-71" x="1133.59375"/>
      <use xlink:href="#Helvetica-2f" x="1189.208984"/>
      <use xlink:href="#Helvetica-79" x="1216.992188"/>
      <use xlink:href="#Helvetica-72" x="1266.992188"/>
      <use xlink:href="#Helvetica-29" x="1300.292969"/>
     </g>
    </g>
   </g>
   <g id="line2d_17">
    <path d="M 78.988492 305.262992 
L 78.988492 67.569449 
" clip-path="url(#p85c02e07ea)" style="fill: none; stroke-dasharray: 1.85,0.8; stroke-dashoffset: 0; stroke: #000000; stroke-width: 0.5"/>
   </g>
   <g id="line2d_18">
    <path d="M 187.623951 305.262992 
L 187.623951 67.569449 
" clip-path="url(#p85c02e07ea)" style="fill: none; stroke-dasharray: 1.85,0.8; stroke-dashoffset: 0; stroke: #000000; stroke-width: 0.5"/>
   </g>
   <g id="line2d_19">
    <path d="M 296.25941 305.262992 
L 296.25941 67.569449 
" clip-path="url(#p85c02e07ea)" style="fill: none; stroke-dasharray: 1.85,0.8; stroke-dashoffset: 0; stroke: #000000; stroke-width: 0.5"/>
   </g>
   <g id="line2d_20">
    <path d="M 383.167777 305.262992 
L 383.167777 67.569449 
" clip-path="url(#p85c02e07ea)" style="fill: none; stroke-dasharray: 1.85,0.8; stroke-dashoffset: 0; stroke: #000000; stroke-width: 0.5"/>
   </g>
   <g id="patch_3">
    <path d="M 63.779528 305.262992 
L 63.779528 41.159055 
" style="fill: none; stroke: #000000; stroke-width: 1.5; stroke-linejoin: miter; stroke-linecap: square"/>
   </g>
   <g id="patch_4">
    <path d="M 63.779528 305.262992 
L 459.212598 305.262992 
" style="fill: none; stroke: #000000; stroke-width: 1.5; stroke-linejoin: miter; stroke-linecap: square"/>
   </g>
   <g id="text_19">
    <!-- 38Gt -->
    <g transform="translate(69.233336 64.928409)scale(0.09 -0.09)">
     <defs>
      <path id="Helvetica-38" d="M 1741 2600 
Q 2113 2600 2322 2808 
Q 2531 3016 2531 3303 
Q 2531 3553 2331 3762 
Q 2131 3972 1722 3972 
Q 1316 3972 1134 3762 
Q 953 3553 953 3272 
Q 953 2956 1187 2778 
Q 1422 2600 1741 2600 
z
M 1775 384 
Q 2166 384 2423 595 
Q 2681 806 2681 1225 
Q 2681 1659 2415 1884 
Q 2150 2109 1734 2109 
Q 1331 2109 1076 1879 
Q 822 1650 822 1244 
Q 822 894 1055 639 
Q 1288 384 1775 384 
z
M 975 2384 
Q 741 2484 609 2619 
Q 363 2869 363 3269 
Q 363 3769 725 4128 
Q 1088 4488 1753 4488 
Q 2397 4488 2762 4148 
Q 3128 3809 3128 3356 
Q 3128 2938 2916 2678 
Q 2797 2531 2547 2391 
Q 2825 2263 2984 2097 
Q 3281 1784 3281 1284 
Q 3281 694 2884 283 
Q 2488 -128 1763 -128 
Q 1109 -128 657 226 
Q 206 581 206 1256 
Q 206 1653 400 1942 
Q 594 2231 975 2384 
z
" transform="scale(0.015625)"/>
     </defs>
     <use xlink:href="#Helvetica-33"/>
     <use xlink:href="#Helvetica-38" x="55.615234"/>
     <use xlink:href="#Helvetica-47" x="111.230469"/>
     <use xlink:href="#Helvetica-74" x="189.013672"/>
    </g>
   </g>
   <g id="text_20">
    <!-- 31% -->
    <g transform="translate(78.988492 278.708543)scale(0.09 -0.09)">
     <defs>
      <path id="Helvetica-25" d="M 4363 2175 
Q 4813 2175 5131 1856 
Q 5450 1538 5450 1088 
Q 5450 638 5131 319 
Q 4813 0 4363 0 
Q 3909 0 3590 319 
Q 3272 638 3272 1088 
Q 3272 1538 3590 1856 
Q 3909 2175 4363 2175 
z
M 3909 4456 
L 4256 4456 
L 1753 -119 
L 1406 -119 
L 3909 4456 
z
M 1294 2606 
Q 1563 2606 1752 2795 
Q 1941 2984 1941 3250 
Q 1941 3516 1752 3705 
Q 1563 3894 1294 3894 
Q 1028 3894 839 3706 
Q 650 3519 650 3250 
Q 650 2984 839 2795 
Q 1028 2606 1294 2606 
z
M 1294 4341 
Q 1747 4341 2065 4020 
Q 2384 3700 2384 3250 
Q 2384 2800 2065 2481 
Q 1747 2163 1294 2163 
Q 844 2163 525 2481 
Q 206 2800 206 3250 
Q 206 3700 525 4020 
Q 844 4341 1294 4341 
z
M 4363 444 
Q 4628 444 4817 633 
Q 5006 822 5006 1088 
Q 5006 1353 4817 1542 
Q 4628 1731 4363 1731 
Q 4094 1731 3905 1542 
Q 3716 1353 3716 1088 
Q 3716 822 3905 633 
Q 4094 444 4363 444 
z
" transform="scale(0.015625)"/>
     </defs>
     <use xlink:href="#Helvetica-33"/>
     <use xlink:href="#Helvetica-31" x="55.615234"/>
     <use xlink:href="#Helvetica-25" x="111.230469"/>
    </g>
   </g>
   <g id="text_21">
    <!-- 21% -->
    <g transform="translate(78.988492 245.705008)scale(0.09 -0.09)">
     <use xlink:href="#Helvetica-32"/>
     <use xlink:href="#Helvetica-31" x="55.615234"/>
     <use xlink:href="#Helvetica-25" x="111.230469"/>
    </g>
   </g>
   <g id="text_22">
    <!-- 29% -->
    <g transform="translate(78.988492 207.889805)scale(0.09 -0.09)">
     <use xlink:href="#Helvetica-32"/>
     <use xlink:href="#Helvetica-39" x="55.615234"/>
     <use xlink:href="#Helvetica-25" x="111.230469"/>
    </g>
   </g>
   <g id="text_23">
    <!-- 13% -->
    <g transform="translate(78.988492 184.42053)scale(0.09 -0.09)">
     <use xlink:href="#Helvetica-31"/>
     <use xlink:href="#Helvetica-33" x="55.615234"/>
     <use xlink:href="#Helvetica-25" x="111.230469"/>
    </g>
   </g>
   <g id="text_24">
    <!-- 8% -->
    <g transform="translate(78.988492 171.533046)scale(0.09 -0.09)">
     <use xlink:href="#Helvetica-38"/>
     <use xlink:href="#Helvetica-25" x="55.615234"/>
    </g>
   </g>
   <g id="text_25">
    <!-- 42Gt -->
    <g transform="translate(177.868795 64.928409)scale(0.09 -0.09)">
     <use xlink:href="#Helvetica-34"/>
     <use xlink:href="#Helvetica-32" x="55.615234"/>
     <use xlink:href="#Helvetica-47" x="111.230469"/>
     <use xlink:href="#Helvetica-74" x="189.013672"/>
    </g>
   </g>
   <g id="text_26">
    <!-- 33% -->
    <g transform="translate(187.623951 273.868428)scale(0.09 -0.09)">
     <use xlink:href="#Helvetica-33"/>
     <use xlink:href="#Helvetica-33" x="55.615234"/>
     <use xlink:href="#Helvetica-25" x="111.230469"/>
    </g>
   </g>
   <g id="text_27">
    <!-- 21% -->
    <g transform="translate(187.623951 237.483006)scale(0.09 -0.09)">
     <use xlink:href="#Helvetica-32"/>
     <use xlink:href="#Helvetica-31" x="55.615234"/>
     <use xlink:href="#Helvetica-25" x="111.230469"/>
    </g>
   </g>
   <g id="text_28">
    <!-- 26% -->
    <g transform="translate(187.623951 199.583304)scale(0.09 -0.09)">
     <use xlink:href="#Helvetica-32"/>
     <use xlink:href="#Helvetica-36" x="55.615234"/>
     <use xlink:href="#Helvetica-25" x="111.230469"/>
    </g>
   </g>
   <g id="text_29">
    <!-- 15% -->
    <g transform="translate(187.623951 172.966911)scale(0.09 -0.09)">
     <use xlink:href="#Helvetica-31"/>
     <use xlink:href="#Helvetica-35" x="55.615234"/>
     <use xlink:href="#Helvetica-25" x="111.230469"/>
    </g>
   </g>
   <g id="text_30">
    <!-- 8% -->
    <g transform="translate(187.623951 159.187946)scale(0.09 -0.09)">
     <use xlink:href="#Helvetica-38"/>
     <use xlink:href="#Helvetica-25" x="55.615234"/>
    </g>
   </g>
   <g id="text_31">
    <!-- 0.33%/yr -->
    <g transform="translate(115.548799 88.697764)scale(0.09 -0.09)">
     <defs>
      <path id="Helvetica-2e" d="M 547 681 
L 1200 681 
L 1200 0 
L 547 0 
L 547 681 
z
" transform="scale(0.015625)"/>
     </defs>
     <use xlink:href="#Helvetica-30"/>
     <use xlink:href="#Helvetica-2e" x="55.615234"/>
     <use xlink:href="#Helvetica-33" x="83.398438"/>
     <use xlink:href="#Helvetica-33" x="139.013672"/>
     <use xlink:href="#Helvetica-25" x="194.628906"/>
     <use xlink:href="#Helvetica-2f" x="283.544922"/>
     <use xlink:href="#Helvetica-79" x="311.328125"/>
     <use xlink:href="#Helvetica-72" x="361.328125"/>
    </g>
   </g>
   <g id="text_32">
    <!-- 52Gt -->
    <g transform="translate(286.504254 64.928409)scale(0.09 -0.09)">
     <use xlink:href="#Helvetica-35"/>
     <use xlink:href="#Helvetica-32" x="55.615234"/>
     <use xlink:href="#Helvetica-47" x="111.230469"/>
     <use xlink:href="#Helvetica-74" x="189.013672"/>
    </g>
   </g>
   <g id="text_33">
    <!-- 35% -->
    <g transform="translate(296.25941 261.508658)scale(0.09 -0.09)">
     <use xlink:href="#Helvetica-33"/>
     <use xlink:href="#Helvetica-35" x="55.615234"/>
     <use xlink:href="#Helvetica-25" x="111.230469"/>
    </g>
   </g>
   <g id="text_34">
    <!-- 24% -->
    <g transform="translate(296.25941 209.912708)scale(0.09 -0.09)">
     <use xlink:href="#Helvetica-32"/>
     <use xlink:href="#Helvetica-34" x="55.615234"/>
     <use xlink:href="#Helvetica-25" x="111.230469"/>
    </g>
   </g>
   <g id="text_35">
    <!-- 23% -->
    <g transform="translate(296.25941 165.646623)scale(0.09 -0.09)">
     <use xlink:href="#Helvetica-32"/>
     <use xlink:href="#Helvetica-33" x="55.615234"/>
     <use xlink:href="#Helvetica-25" x="111.230469"/>
    </g>
   </g>
   <g id="text_36">
    <!-- 14% -->
    <g transform="translate(296.25941 134.670909)scale(0.09 -0.09)">
     <use xlink:href="#Helvetica-31"/>
     <use xlink:href="#Helvetica-34" x="55.615234"/>
     <use xlink:href="#Helvetica-25" x="111.230469"/>
    </g>
   </g>
   <g id="text_37">
    <!-- 6% -->
    <g transform="translate(296.25941 119.251625)scale(0.09 -0.09)">
     <use xlink:href="#Helvetica-36"/>
     <use xlink:href="#Helvetica-25" x="55.615234"/>
    </g>
   </g>
   <g id="text_38">
    <!-- 1.06%/yr -->
    <g transform="translate(224.184258 88.697764)scale(0.09 -0.09)">
     <use xlink:href="#Helvetica-31"/>
     <use xlink:href="#Helvetica-2e" x="55.615234"/>
     <use xlink:href="#Helvetica-30" x="83.398438"/>
     <use xlink:href="#Helvetica-36" x="139.013672"/>
     <use xlink:href="#Helvetica-25" x="194.628906"/>
     <use xlink:href="#Helvetica-2f" x="283.544922"/>
     <use xlink:href="#Helvetica-79" x="311.328125"/>
     <use xlink:href="#Helvetica-72" x="361.328125"/>
    </g>
   </g>
   <g id="text_39">
    <!-- 58Gt -->
    <g transform="translate(373.412621 64.928409)scale(0.09 -0.09)">
     <use xlink:href="#Helvetica-35"/>
     <use xlink:href="#Helvetica-38" x="55.615234"/>
     <use xlink:href="#Helvetica-47" x="111.230469"/>
     <use xlink:href="#Helvetica-74" x="189.013672"/>
    </g>
   </g>
   <g id="text_40">
    <!-- 0.73%/yr -->
    <g transform="translate(321.956172 88.697764)scale(0.09 -0.09)">
     <use xlink:href="#Helvetica-30"/>
     <use xlink:href="#Helvetica-2e" x="55.615234"/>
     <use xlink:href="#Helvetica-37" x="83.398438"/>
     <use xlink:href="#Helvetica-33" x="139.013672"/>
     <use xlink:href="#Helvetica-25" x="194.628906"/>
     <use xlink:href="#Helvetica-2f" x="283.544922"/>
     <use xlink:href="#Helvetica-79" x="311.328125"/>
     <use xlink:href="#Helvetica-72" x="361.328125"/>
    </g>
   </g>
   <g id="legend_1">
    <g id="patch_5">
     <path d="M 404.531323 128.988524 
L 418.531323 128.988524 
L 418.531323 118.173524 
L 404.531323 118.173524 
z
" style="fill: #a6d854; stroke: #ffffff; stroke-linejoin: miter"/>
    </g>
    <g id="text_41">
     <!-- Buildings -->
     <g transform="translate(421.331323 125.803524)scale(0.07 -0.07)">
      <defs>
       <path id="Helvetica-42" d="M 2213 2650 
Q 2606 2650 2825 2759 
Q 3169 2931 3169 3378 
Q 3169 3828 2803 3984 
Q 2597 4072 2191 4072 
L 1081 4072 
L 1081 2650 
L 2213 2650 
z
M 2422 531 
Q 2994 531 3238 863 
Q 3391 1072 3391 1369 
Q 3391 1869 2944 2050 
Q 2706 2147 2316 2147 
L 1081 2147 
L 1081 531 
L 2422 531 
z
M 472 4591 
L 2444 4591 
Q 3250 4591 3591 4109 
Q 3791 3825 3791 3453 
Q 3791 3019 3544 2741 
Q 3416 2594 3175 2472 
Q 3528 2338 3703 2169 
Q 4013 1869 4013 1341 
Q 4013 897 3734 538 
Q 3319 0 2413 0 
L 472 0 
L 472 4591 
z
" transform="scale(0.015625)"/>
       <path id="Helvetica-75" d="M 975 3347 
L 975 1125 
Q 975 869 1056 706 
Q 1206 406 1616 406 
Q 2203 406 2416 931 
Q 2531 1213 2531 1703 
L 2531 3347 
L 3094 3347 
L 3094 0 
L 2563 0 
L 2569 494 
Q 2459 303 2297 172 
Q 1975 -91 1516 -91 
Q 800 -91 541 388 
Q 400 644 400 1072 
L 400 3347 
L 975 3347 
z
M 1747 3428 
L 1747 3428 
z
" transform="scale(0.015625)"/>
       <path id="Helvetica-6c" d="M 428 4591 
L 991 4591 
L 991 0 
L 428 0 
L 428 4591 
z
" transform="scale(0.015625)"/>
       <path id="Helvetica-64" d="M 769 1634 
Q 769 1097 997 734 
Q 1225 372 1728 372 
Q 2119 372 2370 708 
Q 2622 1044 2622 1672 
Q 2622 2306 2362 2611 
Q 2103 2916 1722 2916 
Q 1297 2916 1033 2591 
Q 769 2266 769 1634 
z
M 1616 3406 
Q 2000 3406 2259 3244 
Q 2409 3150 2600 2916 
L 2600 4606 
L 3141 4606 
L 3141 0 
L 2634 0 
L 2634 466 
Q 2438 156 2169 18 
Q 1900 -119 1553 -119 
Q 994 -119 584 351 
Q 175 822 175 1603 
Q 175 2334 548 2870 
Q 922 3406 1616 3406 
z
" transform="scale(0.015625)"/>
       <path id="Helvetica-67" d="M 1594 3406 
Q 1988 3406 2281 3213 
Q 2441 3103 2606 2894 
L 2606 3316 
L 3125 3316 
L 3125 272 
Q 3125 -366 2938 -734 
Q 2588 -1416 1616 -1416 
Q 1075 -1416 706 -1173 
Q 338 -931 294 -416 
L 866 -416 
Q 906 -641 1028 -763 
Q 1219 -950 1628 -950 
Q 2275 -950 2475 -494 
Q 2594 -225 2584 466 
Q 2416 209 2178 84 
Q 1941 -41 1550 -41 
Q 1006 -41 598 345 
Q 191 731 191 1622 
Q 191 2463 602 2934 
Q 1013 3406 1594 3406 
z
M 2606 1688 
Q 2606 2309 2350 2609 
Q 2094 2909 1697 2909 
Q 1103 2909 884 2353 
Q 769 2056 769 1575 
Q 769 1009 998 714 
Q 1228 419 1616 419 
Q 2222 419 2469 966 
Q 2606 1275 2606 1688 
z
M 1659 3428 
L 1659 3428 
z
" transform="scale(0.015625)"/>
      </defs>
      <use xlink:href="#Helvetica-42"/>
      <use xlink:href="#Helvetica-75" x="66.699219"/>
      <use xlink:href="#Helvetica-69" x="122.314453"/>
      <use xlink:href="#Helvetica-6c" x="144.53125"/>
      <use xlink:href="#Helvetica-64" x="166.748047"/>
      <use xlink:href="#Helvetica-69" x="222.363281"/>
      <use xlink:href="#Helvetica-6e" x="244.580078"/>
      <use xlink:href="#Helvetica-67" x="300.195312"/>
      <use xlink:href="#Helvetica-73" x="355.810547"/>
     </g>
    </g>
    <g id="patch_6">
     <path d="M 404.531323 153.803524 
L 418.531323 153.803524 
L 418.531323 142.988524 
L 404.531323 142.988524 
z
" style="fill: #e78ac3; stroke: #ffffff; stroke-linejoin: miter"/>
    </g>
    <g id="text_42">
     <!-- Transport -->
     <g transform="translate(421.331323 150.618524)scale(0.07 -0.07)">
      <defs>
       <path id="Helvetica-54" d="M 3828 4591 
L 3828 4044 
L 2281 4044 
L 2281 0 
L 1650 0 
L 1650 4044 
L 103 4044 
L 103 4591 
L 3828 4591 
z
" transform="scale(0.015625)"/>
       <path id="Helvetica-70" d="M 1825 378 
Q 2219 378 2480 708 
Q 2741 1038 2741 1694 
Q 2741 2094 2625 2381 
Q 2406 2934 1825 2934 
Q 1241 2934 1025 2350 
Q 909 2038 909 1556 
Q 909 1169 1025 897 
Q 1244 378 1825 378 
z
M 369 3331 
L 916 3331 
L 916 2888 
Q 1084 3116 1284 3241 
Q 1569 3428 1953 3428 
Q 2522 3428 2919 2992 
Q 3316 2556 3316 1747 
Q 3316 653 2744 184 
Q 2381 -113 1900 -113 
Q 1522 -113 1266 53 
Q 1116 147 931 375 
L 931 -1334 
L 369 -1334 
L 369 3331 
z
" transform="scale(0.015625)"/>
      </defs>
      <use xlink:href="#Helvetica-54"/>
      <use xlink:href="#Helvetica-72" x="61.083984"/>
      <use xlink:href="#Helvetica-61" x="94.384766"/>
      <use xlink:href="#Helvetica-6e" x="150"/>
      <use xlink:href="#Helvetica-73" x="205.615234"/>
      <use xlink:href="#Helvetica-70" x="255.615234"/>
      <use xlink:href="#Helvetica-6f" x="311.230469"/>
      <use xlink:href="#Helvetica-72" x="366.845703"/>
      <use xlink:href="#Helvetica-74" x="400.146484"/>
     </g>
    </g>
    <g id="patch_7">
     <path d="M 404.531323 178.618524 
L 418.531323 178.618524 
L 418.531323 167.803524 
L 404.531323 167.803524 
z
" style="fill: #8da0cb; stroke: #ffffff; stroke-linejoin: miter"/>
    </g>
    <g id="text_43">
     <!-- AFOLU -->
     <g transform="translate(421.331323 175.433524)scale(0.07 -0.07)">
      <defs>
       <path id="Helvetica-41" d="M 2844 1881 
L 2147 3909 
L 1406 1881 
L 2844 1881 
z
M 1822 4591 
L 2525 4591 
L 4191 0 
L 3509 0 
L 3044 1375 
L 1228 1375 
L 731 0 
L 94 0 
L 1822 4591 
z
" transform="scale(0.015625)"/>
       <path id="Helvetica-46" d="M 547 4591 
L 3731 4591 
L 3731 4028 
L 1169 4028 
L 1169 2634 
L 3422 2634 
L 3422 2088 
L 1169 2088 
L 1169 0 
L 547 0 
L 547 4591 
z
" transform="scale(0.015625)"/>
       <path id="Helvetica-4c" d="M 488 4591 
L 1109 4591 
L 1109 547 
L 3434 547 
L 3434 0 
L 488 0 
L 488 4591 
z
" transform="scale(0.015625)"/>
       <path id="Helvetica-55" d="M 1163 4591 
L 1163 1753 
Q 1163 1253 1350 922 
Q 1628 422 2288 422 
Q 3078 422 3363 963 
Q 3516 1256 3516 1753 
L 3516 4591 
L 4147 4591 
L 4147 2013 
Q 4147 1166 3919 709 
Q 3500 -122 2338 -122 
Q 1175 -122 759 709 
Q 531 1166 531 2013 
L 531 4591 
L 1163 4591 
z
M 2341 4591 
L 2341 4591 
z
" transform="scale(0.015625)"/>
      </defs>
      <use xlink:href="#Helvetica-41"/>
      <use xlink:href="#Helvetica-46" x="66.699219"/>
      <use xlink:href="#Helvetica-4f" x="127.783203"/>
      <use xlink:href="#Helvetica-4c" x="205.566406"/>
      <use xlink:href="#Helvetica-55" x="261.181641"/>
     </g>
    </g>
    <g id="patch_8">
     <path d="M 404.531323 203.433524 
L 418.531323 203.433524 
L 418.531323 192.618524 
L 404.531323 192.618524 
z
" style="fill: #fc8d62; stroke: #ffffff; stroke-linejoin: miter"/>
    </g>
    <g id="text_44">
     <!-- Industry -->
     <g transform="translate(421.331323 200.248524)scale(0.07 -0.07)">
      <defs>
       <path id="Helvetica-49" d="M 628 4591 
L 1256 4591 
L 1256 0 
L 628 0 
L 628 4591 
z
" transform="scale(0.015625)"/>
      </defs>
      <use xlink:href="#Helvetica-49"/>
      <use xlink:href="#Helvetica-6e" x="27.783203"/>
      <use xlink:href="#Helvetica-64" x="83.398438"/>
      <use xlink:href="#Helvetica-75" x="139.013672"/>
      <use xlink:href="#Helvetica-73" x="194.628906"/>
      <use xlink:href="#Helvetica-74" x="244.628906"/>
      <use xlink:href="#Helvetica-72" x="272.412109"/>
      <use xlink:href="#Helvetica-79" x="305.712891"/>
     </g>
    </g>
    <g id="patch_9">
     <path d="M 404.531323 228.248524 
L 418.531323 228.248524 
L 418.531323 217.433524 
L 404.531323 217.433524 
z
" style="fill: #66c2a5; stroke: #ffffff; stroke-linejoin: miter"/>
    </g>
    <g id="text_45">
     <!-- Energy systems -->
     <g transform="translate(421.331323 225.063524)scale(0.07 -0.07)">
      <defs>
       <path id="Helvetica-45" d="M 547 4591 
L 3894 4591 
L 3894 4028 
L 1153 4028 
L 1153 2634 
L 3688 2634 
L 3688 2103 
L 1153 2103 
L 1153 547 
L 3941 547 
L 3941 0 
L 547 0 
L 547 4591 
z
M 2244 4591 
L 2244 4591 
z
" transform="scale(0.015625)"/>
      </defs>
      <use xlink:href="#Helvetica-45"/>
      <use xlink:href="#Helvetica-6e" x="66.699219"/>
      <use xlink:href="#Helvetica-65" x="122.314453"/>
      <use xlink:href="#Helvetica-72" x="177.929688"/>
      <use xlink:href="#Helvetica-67" x="211.230469"/>
      <use xlink:href="#Helvetica-79" x="266.845703"/>
      <use xlink:href="#Helvetica-20" x="316.845703"/>
      <use xlink:href="#Helvetica-73" x="344.628906"/>
      <use xlink:href="#Helvetica-79" x="394.628906"/>
      <use xlink:href="#Helvetica-73" x="444.628906"/>
      <use xlink:href="#Helvetica-74" x="494.628906"/>
      <use xlink:href="#Helvetica-65" x="522.412109"/>
      <use xlink:href="#Helvetica-6d" x="578.027344"/>
      <use xlink:href="#Helvetica-73" x="661.328125"/>
     </g>
    </g>
   </g>
  </g>
 </g>
 <defs>
  <clipPath id="p85c02e07ea">
   <rect x="63.779528" y="41.159055" width="395.433071" height="264.103937"/>
  </clipPath>
 </defs>
</svg>
